<svg width="129" height="15" viewBox="0 0 129 15" fill="none" xmlns="http://www.w3.org/2000/svg">
<path d="M0.264205 15V0.454545H6.08807C7.15814 0.454545 8.05066 0.613163 8.76562 0.930398C9.48059 1.24763 10.018 1.68797 10.3778 2.25142C10.7377 2.81013 10.9176 3.45407 10.9176 4.18324C10.9176 4.75142 10.804 5.25095 10.5767 5.68182C10.3494 6.10795 10.0369 6.45833 9.6392 6.73295C9.24621 7.00284 8.7964 7.1946 8.28977 7.30824V7.45028C8.84375 7.47396 9.36222 7.63021 9.84517 7.91903C10.3329 8.20786 10.7282 8.61269 11.0312 9.13352C11.3343 9.64962 11.4858 10.2652 11.4858 10.9801C11.4858 11.7519 11.294 12.4408 10.9105 13.0469C10.5317 13.6482 9.97064 14.1241 9.22727 14.4744C8.4839 14.8248 7.56771 15 6.47869 15H0.264205ZM3.33949 12.4858H5.84659C6.7036 12.4858 7.3286 12.3224 7.72159 11.9957C8.11458 11.6643 8.31108 11.224 8.31108 10.6747C8.31108 10.2723 8.21402 9.91714 8.01989 9.60938C7.82576 9.30161 7.54877 9.06013 7.18892 8.88494C6.83381 8.70975 6.41004 8.62216 5.91761 8.62216H3.33949V12.4858ZM3.33949 6.54119H5.61932C6.04072 6.54119 6.41477 6.4678 6.74148 6.32102C7.07292 6.16951 7.33333 5.95644 7.52273 5.68182C7.71686 5.4072 7.81392 5.07812 7.81392 4.6946C7.81392 4.16903 7.62689 3.74527 7.25284 3.4233C6.88352 3.10133 6.35795 2.94034 5.67614 2.94034H3.33949V6.54119ZM13.4869 15V0.454545H19.2255C20.324 0.454545 21.2615 0.651041 22.038 1.04403C22.8192 1.43229 23.4135 1.9839 23.8207 2.69886C24.2326 3.40909 24.4386 4.24479 24.4386 5.20597C24.4386 6.17187 24.2302 7.00284 23.8136 7.69886C23.3969 8.39015 22.7932 8.92045 22.0025 9.28977C21.2165 9.65909 20.2648 9.84375 19.1474 9.84375H15.305V7.37216H18.6502C19.2373 7.37216 19.725 7.29167 20.1133 7.13068C20.5015 6.9697 20.7904 6.72822 20.9798 6.40625C21.1739 6.08428 21.271 5.68419 21.271 5.20597C21.271 4.72301 21.1739 4.31581 20.9798 3.98438C20.7904 3.65294 20.4992 3.40199 20.1062 3.23153C19.7179 3.05634 19.2279 2.96875 18.636 2.96875H16.5621V15H13.4869ZM21.342 8.38068L24.957 15H21.5621L18.0252 8.38068H21.342ZM29.119 15H25.8235L30.8448 0.454545H34.8079L39.8221 15H36.5266L32.8832 3.77841H32.7695L29.119 15ZM28.913 9.28267H36.6971V11.6832H28.913V9.28267ZM53.739 0.454545V15H51.0827L44.7546 5.84517H44.6481V15H41.5728V0.454545H44.2717L50.5501 9.60227H50.6779V0.454545H53.739ZM61.4361 15H56.2798V0.454545H61.4787C62.9418 0.454545 64.2012 0.745738 65.2571 1.32812C66.313 1.90578 67.125 2.73674 67.6932 3.82102C68.2661 4.9053 68.5526 6.20265 68.5526 7.71307C68.5526 9.22822 68.2661 10.5303 67.6932 11.6193C67.125 12.7083 66.3082 13.544 65.2429 14.1264C64.1823 14.7088 62.9134 15 61.4361 15ZM59.3551 12.3651H61.3082C62.2173 12.3651 62.982 12.2041 63.6023 11.8821C64.2273 11.5554 64.696 11.0511 65.0085 10.3693C65.3258 9.68277 65.4844 8.79735 65.4844 7.71307C65.4844 6.63826 65.3258 5.75994 65.0085 5.07812C64.696 4.39631 64.2296 3.89441 63.6094 3.57244C62.9891 3.25047 62.2244 3.08949 61.3153 3.08949H59.3551V12.3651ZM82.9968 0.454545V15H80.3406L74.0124 5.84517H73.9059V15H70.8306V0.454545H73.5295L79.8079 9.60227H79.9357V0.454545H82.9968ZM88.0447 15H84.7493L89.7706 0.454545H93.7337L98.7479 15H95.4524L91.8089 3.77841H91.6953L88.0447 15ZM87.8388 9.28267H95.6229V11.6832H87.8388V9.28267ZM100.499 0.454545H104.291L108.297 10.2273H108.467L112.473 0.454545H116.266V15H113.283V5.53267H113.162L109.398 14.929H107.366L103.602 5.49716H103.482V15H100.499V0.454545ZM118.799 15V0.454545H128.6V2.99006H121.875V6.45597H128.096V8.99148H121.875V12.4645H128.629V15H118.799Z" fill="#FCFCFC"/>
</svg>
